<?xml version="1.0" encoding="utf-8"?>
<!-- Generator: Adobe Illustrator 24.0.0, SVG Export Plug-In . SVG Version: 6.00 Build 0)  -->
<svg version="1.1" id="Layer_1" xmlns="http://www.w3.org/2000/svg" xmlns:xlink="http://www.w3.org/1999/xlink" x="0px" y="0px"
	 viewBox="0 0 12 12" style="enable-background:new 0 0 12 12;" xml:space="preserve">
<style type="text/css">
	.st0{fill:#CCCCCC;}
	.st1{fill:#B7B2B2;}
</style>
<path class="st0" d="M0.7,6c0-0.4,0.4-0.8,0.8-0.8l2.9,0l2.7-4l1.1,0l-1.3,4l2.9,0l0.8-1l0.8,0l-0.5,1.7l0.5,1.8l-0.8,0l-0.8-1
	l-2.9,0l1.3,4l-1.1,0l-2.6-4l-2.9,0C1.1,6.7,0.7,6.4,0.7,6z"/>
<path class="st1" d="M16.6,6.8h14.8c0.5,0,0.9-0.4,0.9-0.9v0c0-0.5-0.4-0.9-0.9-0.9H16.6c-0.5,0-0.9,0.4-0.9,0.9v0
	C15.7,6.4,16.1,6.8,16.6,6.8z"/>
<path class="st1" d="M-3.4,6L-3.4,6"/>
<path class="st1" d="M-39.1,6L-39.1,6"/>
<path class="st1" d="M35.4,6.8h14.8c0.5,0,0.9-0.4,0.9-0.9v0c0-0.5-0.4-0.9-0.9-0.9H35.4c-0.5,0-0.9,0.4-0.9,0.9v0
	C34.5,6.4,34.9,6.8,35.4,6.8z"/>
<path class="st1" d="M-37.9,6.8h14.8c0.5,0,0.9-0.4,0.9-0.9v0c0-0.5-0.4-0.9-0.9-0.9h-14.8c-0.5,0-0.9,0.4-0.9,0.9v0
	C-38.8,6.4-38.4,6.8-37.9,6.8z"/>
<path class="st1" d="M-19,6.8h14.8c0.5,0,0.9-0.4,0.9-0.9v0c0-0.5-0.4-0.9-0.9-0.9H-19c-0.5,0-0.9,0.4-0.9,0.9v0
	C-19.9,6.4-19.5,6.8-19,6.8z"/>
</svg>
