<svg xmlns="http://www.w3.org/2000/svg" viewBox="0 0 288.57 52.95"><defs><style>.cls-1{fill:#443f3f;}.cls-2{fill:#b7b2b2;}.cls-3{fill:#ff006c;}</style></defs><title>Asset 1</title><g id="Layer_2" data-name="Layer 2"><g id="Layer_1-2" data-name="Layer 1"><path class="cls-1" d="M122.38,31.91a3.42,3.42,0,0,1,3.52-3.33h12.92l11.76-17.74,4.7,0-5.91,17.74h12.95l3.51-4.44h3.54L167,31.86l2.35,7.77-3.55,0-3.53-4.5H149.41L155.24,53h-4.7L138.82,35.22H125.9A3.44,3.44,0,0,1,122.38,31.91Z"/><rect class="cls-1" x="182.34" y="28.89" width="40" height="5.74" rx="2.87"/><path class="cls-1" d="M114.56,31.76h0"/><path class="cls-2" d="M0,31.76H0"/><rect class="cls-1" x="242.73" y="28.89" width="40" height="5.74" rx="2.87"/><rect class="cls-1" x="7.66" y="28.89" width="40" height="5.74" rx="2.87"/><rect class="cls-1" x="68.2" y="28.89" width="40" height="5.77" rx="2.88"/><path class="cls-3" d="M10.17,0A8.65,8.65,0,0,0,1.76,8.88a9.12,9.12,0,0,0,1.88,5.57c.37.49,1,1.27,1.33,1.79,1.9,3,4.32,7.45,5,11.07.12.62.27.63.43,0a41.22,41.22,0,0,1,4.51-10.68,16.46,16.46,0,0,1,1.38-1.74,8.84,8.84,0,0,0,1.45-2.28,9.17,9.17,0,0,0,.8-3.75A8.65,8.65,0,0,0,10.17,0Zm0,13.67A4.83,4.83,0,0,1,5.48,8.72a4.83,4.83,0,0,1,4.69-5,4.82,4.82,0,0,1,4.68,5A4.82,4.82,0,0,1,10.17,13.67Z"/><ellipse class="cls-3" cx="10.17" cy="8.54" rx="1.95" ry="2.06"/><path class="cls-3" d="M280.17,0a8.65,8.65,0,0,0-8.41,8.88,9.12,9.12,0,0,0,1.88,5.57c.37.49,1,1.27,1.33,1.79,1.9,3,4.32,7.45,5,11.07.12.62.27.63.43,0a41.22,41.22,0,0,1,4.51-10.68,16.46,16.46,0,0,1,1.38-1.74,8.84,8.84,0,0,0,1.45-2.28,9.17,9.17,0,0,0,.8-3.75A8.65,8.65,0,0,0,280.17,0Zm0,13.67a4.83,4.83,0,0,1-4.69-4.95,4.69,4.69,0,1,1,9.37,0A4.82,4.82,0,0,1,280.17,13.67Z"/><ellipse class="cls-3" cx="280.17" cy="8.54" rx="1.95" ry="2.06"/></g></g></svg>